<?xml version="1.0" encoding="UTF-8"?>
<svg id="Layer_2" data-name="Layer 2" xmlns="http://www.w3.org/2000/svg" viewBox="0 0 230.38 228.3">
  <defs>
    <style>
      .cls-1 {
        fill: #9d90fc;
      }

      .cls-2 {
        fill: #0b013c;
      }

      .cls-3 {
        fill: #27198e;
      }

      .cls-4 {
        fill: #4429cc;
      }
    </style>
  </defs>
  <g id="Logotipos">
    <g>
      <rect class="cls-2" x="78.53" y="-12.4" width="75.41" height="253.09" rx="4.81" ry="4.81" transform="translate(279.13 112.68) rotate(135)"/>
      <g>
        <g>
          <polygon class="cls-1" points="53.41 191.79 .09 138.47 89.57 87.49 142.89 140.81 53.41 191.79"/>
          <path class="cls-3" d="M53.41,191.79l-.09,36.49c1.26.02,2.53-.44,3.49-1.4l86.08-86.08-89.48,50.98Z"/>
          <path class="cls-4" d="M53.32,228.29l.09-36.49L.09,138.47,0,174.91c0,1.18.45,2.31,1.23,3.19l48.78,48.78c.92.92,2.11,1.38,3.31,1.4Z"/>
        </g>
        <path class="cls-4" d="M228.97,47.93L182.45,1.41c-1.88-1.88-4.93-1.88-6.81,0l-86.08,86.08,53.32,53.32,86.08-86.08c1.88-1.88,1.88-4.93,0-6.81Z"/>
      </g>
    </g>
  </g>
</svg>