<?xml version="1.0" encoding="UTF-8"?>
<svg id="Layer_2" data-name="Layer 2" xmlns="http://www.w3.org/2000/svg" viewBox="0 0 798.46 140.85">
  <defs>
    <style>
      .cls-1 {
        fill: #9d90fc;
      }

      .cls-2 {
        fill: #0b013c;
      }

      .cls-3 {
        fill: #27198e;
      }

      .cls-4 {
        fill: #9d1aee;
      }

      .cls-5 {
        fill: #4429cc;
      }
    </style>
  </defs>
  <g id="Logotipos">
    <g>
      <g>
        <path class="cls-4" d="M401.09,82.33c0-17.28,12.39-30.35,28.98-30.35,9.66,0,17.62,4.55,22.51,11.82V29.47h9.78v66.61c0,3.52,2.27,5.8,5.8,5.8h1.14v9.43h-3.07c-7.84,0-12.5-3.75-13.41-10.68-4.89,7.39-12.96,12.05-22.73,12.05-16.59,0-28.98-13.07-28.98-30.35ZM452.58,82.33c0-11.94-8.87-20.92-20.69-20.92s-20.8,8.98-20.8,20.92,8.87,20.92,20.8,20.92,20.69-8.98,20.69-20.92Z"/>
        <path class="cls-4" d="M476.45,82.33c0-17.28,13.3-30.35,30.81-30.35s30.81,13.07,30.81,30.35c0,1.36-.11,2.84-.23,4.09h-50.92c1.71,10.23,9.89,17.28,20.8,17.28,8.07,0,15.12-3.87,18.42-9.66h10.91c-4.55,11.14-15.8,18.64-29.44,18.64-17.85,0-31.15-13.07-31.15-30.35ZM487.02,77.66h40.69c-1.71-9.66-9.89-16.71-20.46-16.71s-18.3,6.82-20.23,16.71Z"/>
        <path class="cls-4" d="M549.76,89.83v-36.49h9.78v33.65c0,9.78,6.25,16.25,15.91,16.25s16.94-6.59,16.94-16.48v-33.42h9.78v42.74c0,3.52,2.16,5.8,5.8,5.8h1.02v9.43h-2.96c-7.27,0-11.82-3.18-13.18-9.09-4.43,6.71-11.48,10.46-20.46,10.46-13.53,0-22.62-9.09-22.62-22.85Z"/>
        <path class="cls-4" d="M616.14,82.33c0-17.28,12.39-30.35,28.98-30.35,9.66,0,17.62,4.55,22.51,11.82V29.47h9.78v66.61c0,3.52,2.27,5.8,5.8,5.8h1.14v9.43h-3.07c-7.84,0-12.5-3.75-13.41-10.68-4.89,7.39-12.96,12.05-22.73,12.05-16.59,0-28.98-13.07-28.98-30.35ZM667.63,82.33c0-11.94-8.87-20.92-20.69-20.92s-20.8,8.98-20.8,20.92,8.87,20.92,20.8,20.92,20.69-8.98,20.69-20.92Z"/>
        <path class="cls-4" d="M691.5,82.33c0-17.28,13.3-30.35,30.92-30.35s30.81,13.07,30.81,30.35-13.3,30.35-30.81,30.35-30.92-13.07-30.92-30.35ZM743.11,82.33c0-11.94-8.87-20.92-20.69-20.92s-20.8,8.98-20.8,20.92,8.87,20.92,20.8,20.92,20.69-8.98,20.69-20.92Z"/>
        <path class="cls-4" d="M766.06,53.34h9.78v11.03c4.43-7.5,11.71-11.94,20.8-11.94h1.82v10.12h-1.82c-12.96,0-20.8,7.73-20.8,19.67v29.1h-9.78v-57.97Z"/>
        <g>
          <path class="cls-2" d="M174.56,95.17V29.47h12.73v62.86c0,4.21,2.62,6.71,6.82,6.71h3.52v12.28h-5.34c-11.59,0-17.73-5.68-17.73-16.14Z"/>
          <path class="cls-2" d="M202.29,82.33c0-17.28,13.3-30.35,30.92-30.35s31.03,13.07,31.03,30.46c0,1.59-.11,3.3-.34,4.77h-47.97c1.93,8.41,8.75,13.98,17.85,13.98,6.71,0,12.5-2.96,15.46-7.39h14.1c-4.66,11.25-16.03,18.87-29.78,18.87-17.96,0-31.26-13.07-31.26-30.35ZM216.05,76.76h34.56c-1.93-7.96-8.75-13.3-17.39-13.3s-15.12,5.23-17.16,13.3Z"/>
          <path class="cls-2" d="M287.54,82.21l-21.14-28.87h15.57l14.32,20.23,14.32-20.23h15.46l-21.14,28.87,8.64,10.69c3.07,3.98,6.93,6.14,11.25,6.14h3.3v12.28h-4.77c-8.52,0-15-3.52-20.46-12.16l-6.59-8.87-14.78,21.03h-15.46l21.48-29.1Z"/>
          <path class="cls-2" d="M376.32,53.34v30.12c0,8.53-5.8,14.1-14.44,14.1-8.18,0-13.53-5.46-13.53-13.87v-30.35h-12.73v34.1c0,13.53,8.87,22.39,22.17,22.39,7.73,0,14.09-2.96,18.53-8.53v7.5c0,8.41-6.02,13.98-13.98,13.98v11.47c15.57-.1,26.71-10.41,26.71-26.02v-54.9h-12.73Z"/>
        </g>
      </g>
      <g>
        <rect class="cls-2" x="48.45" y="-7.65" width="46.52" height="156.14" rx="2.97" ry="2.97" transform="translate(172.21 69.52) rotate(135)"/>
        <g>
          <g>
            <polygon class="cls-1" points="32.95 118.33 .05 85.43 55.26 53.98 88.16 86.87 32.95 118.33"/>
            <path class="cls-3" d="M32.95,118.33l-.05,22.51c.78.01,1.56-.27,2.15-.86l53.11-53.11-55.2,31.45Z"/>
            <path class="cls-5" d="M32.9,140.84l.05-22.51L.05,85.43,0,107.91c0,.73.28,1.42.76,1.97l30.1,30.1c.57.57,1.3.85,2.04.86Z"/>
          </g>
          <path class="cls-5" d="M141.26,29.57L112.56.87c-1.16-1.16-3.04-1.16-4.2,0l-53.11,53.11,32.9,32.9,53.11-53.11c1.16-1.16,1.16-3.04,0-4.2Z"/>
        </g>
      </g>
    </g>
  </g>
</svg>